# xmcd
#
# Track frame offsets: 
#        150
#        21605
#        42138
#        66854
#        85820
#        103284
#        129661
#        150322
#        169728
#        186298
#        213190
#        235746
#
# Disc length: 3428 seconds
#
# Revision: 0
# Processed by: cddbd v1.5.2PL0 Copyright (c) Steve Scherf et al.
# Submitted via: ExactAudioCopyFreeDBPlugin 1.0
#
DISCID=9f0d620c
DTITLE=陈影 - 月光女神 DTS
DYEAR=2008
DGENRE=DTS ES
TTITLE0=有没有人告诉我
TTITLE1=做你的爱人
TTITLE2=我和草原有个约定
TTITLE3=新浏阳河
TTITLE4=香烟爱上火柴
TTITLE5=新不了情
TTITLE6=有情人终成眷属
TTITLE7=出卖
TTITLE8=血疑
TTITLE9=潇湘雨
TTITLE10=爱与忧愁
TTITLE11=手心里的温柔
EXTD=
EXTT0=
EXTT1=
EXTT2=
EXTT3=
EXTT4=
EXTT5=
EXTT6=
EXTT7=
EXTT8=
EXTT9=
EXTT10=
EXTT11=
PLAYORDER=
